<svg xmlns="http://www.w3.org/2000/svg" width="30" height="30" viewBox="0 0 30 30" version="1.1"><path d="M 14 10.500 C 14 17.412, 13.391 18.195, 10.500 15 C 8.632 12.936, 6 12.302, 6 13.916 C 6 14.420, 7.800 16.258, 10 18 C 13.585 20.839, 14 21.627, 14 25.584 C 14 28.013, 14.450 30, 15 30 C 15.550 30, 16 29.135, 16 28.078 C 16 27.021, 17.878 24.549, 20.173 22.584 C 24.673 18.732, 24.717 16.819, 20.254 19.055 C 18.739 19.815, 17.163 20.600, 16.750 20.801 C 16.337 21.002, 16 20.042, 16 18.667 C 16 16.940, 17.255 15.174, 20.065 12.949 C 22.907 10.697, 23.813 9.413, 23.078 8.678 C 22.343 7.943, 21.327 8.284, 19.699 9.813 C 16.484 12.833, 16 12.596, 16 8 C 16 5.800, 15.550 4, 15 4 C 14.436 4, 14 6.833, 14 10.500 M 29 10.500 C 29 10.775, 29.225 11, 29.500 11 C 29.775 11, 30 10.775, 30 10.500 C 30 10.225, 29.775 10, 29.500 10 C 29.225 10, 29 10.225, 29 10.500 M 0 19.500 C 0 19.775, 0.225 20, 0.500 20 C 0.775 20, 1 19.775, 1 19.500 C 1 19.225, 0.775 19, 0.500 19 C 0.225 19, 0 19.225, 0 19.500 M 29 19.500 C 29 19.775, 29.225 20, 29.500 20 C 29.775 20, 30 19.775, 30 19.500 C 30 19.225, 29.775 19, 29.500 19 C 29.225 19, 29 19.225, 29 19.500" stroke="none" fill="#eef8ef" fill-rule="evenodd"/><path d="M 5.307 5.479 C 0.803 10.128, 0 11.528, 0.002 14.729 C 0.004 19.778, 2.753 24.961, 6.898 27.730 C 12.304 31.341, 14 30.829, 14 25.584 C 14 21.627, 13.585 20.839, 10 18 C 7.800 16.258, 6 14.420, 6 13.916 C 6 12.302, 8.632 12.936, 10.500 15 C 13.391 18.195, 14 17.412, 14 10.500 C 14 6.833, 14.436 4, 15 4 C 15.550 4, 16 5.800, 16 8 C 16 12.596, 16.484 12.833, 19.699 9.813 C 21.327 8.284, 22.343 7.943, 23.078 8.678 C 23.813 9.413, 22.907 10.697, 20.065 12.949 C 17.255 15.174, 16 16.940, 16 18.667 C 16 20.042, 16.337 21.002, 16.750 20.801 C 17.162 20.600, 18.739 19.815, 20.254 19.055 C 24.717 16.819, 24.673 18.732, 20.173 22.584 C 13.197 28.555, 15.598 32.761, 23.102 27.716 C 27.398 24.827, 30.815 18.651, 30.919 13.583 C 30.964 11.429, 30.712 9.955, 30.360 10.306 C 30.008 10.658, 28.996 9.505, 28.110 7.743 C 25.760 3.067, 20.629 0, 15.159 0 C 10.964 0, 10.204 0.422, 5.307 5.479 M 0.272 15 C 0.272 17.475, 0.467 18.488, 0.706 17.250 C 0.944 16.012, 0.944 13.988, 0.706 12.750 C 0.467 11.512, 0.272 12.525, 0.272 15" stroke="none" fill="#32bc36" fill-rule="evenodd"/></svg>